<svg width="1210" height="1162" viewBox="0 0 1210 1162" fill="none" xmlns="http://www.w3.org/2000/svg">
<path opacity="0.994" fill-rule="evenodd" clip-rule="evenodd" d="M567.118 0C659.214 0 751.311 0 843.407 0C872.374 1.47776 901.457 4.13082 930.656 7.95917C966.127 11.9936 997.634 25.0177 1025.18 47.0315C1045.01 66.8003 1060.28 89.713 1070.98 115.77C1078.34 133.877 1085.13 152.207 1091.34 170.76C1115.28 253.054 1138.55 335.54 1161.14 418.218C1177.24 472.315 1193.48 526.34 1209.85 580.296C1160.9 580.296 1111.94 580.296 1062.98 580.296C1019.46 440.95 974.624 302.026 928.475 163.525C921.191 151.57 910.769 143.611 897.21 139.647C877.872 138.062 858.484 137.338 839.044 137.477C787.181 138.252 735.316 138.976 683.45 139.647C675.73 142.517 671.125 148.064 669.636 156.289C668.666 164.007 668.666 171.726 669.636 179.443C712.389 313.114 755.287 446.731 798.328 580.296C798.148 581.174 797.664 581.656 796.874 581.743C748.545 581.553 700.074 581.072 651.459 580.296C605.617 437.406 559.327 294.622 512.588 151.948C502.54 122.829 498.177 92.9217 499.501 62.2262C504.984 23.1894 527.523 2.44729 567.118 0Z" fill="url(#paint0_linear_2264_2)"/>
<path opacity="0.993" fill-rule="evenodd" clip-rule="evenodd" d="M571.481 580.296C532.219 580.296 492.957 580.296 453.695 580.296C418.608 468.548 382.497 357.119 345.361 246.011C339.079 234.935 329.627 228.423 317.005 226.475C261.747 225.51 206.489 225.51 151.232 226.475C147.547 227.221 144.397 228.91 141.78 231.54C138.613 237.149 136.917 243.179 136.69 249.629C170.13 360.313 205.029 470.535 241.389 580.296C202.127 580.296 162.865 580.296 123.603 580.296C86.3921 467.031 49.3112 353.674 12.3603 240.222C6.43457 221.096 2.31448 201.801 0 182.338C0 177.996 0 173.655 0 169.313C3.68528 134.064 23.5587 115.975 59.6201 115.046C128.935 114.082 198.249 114.082 267.564 115.046C304.964 114.84 341.804 119.182 378.079 128.07C406.938 137.019 429.477 154.143 445.697 179.443C461.006 207.998 473.125 237.906 482.051 269.165C510.25 373.368 540.06 477.077 571.481 580.296Z" fill="url(#paint1_linear_2264_2)"/>
<path opacity="0.992" fill-rule="evenodd" clip-rule="evenodd" d="M123.603 580.296C162.865 580.296 202.127 580.296 241.389 580.296C207.857 685.955 174.17 791.595 140.326 897.216C137.026 908.046 137.51 918.658 141.78 929.052C144.161 932.395 147.312 934.566 151.232 935.564C206.005 936.53 260.777 936.53 315.551 935.564C329.537 933.686 339.959 926.691 346.815 914.581C383.173 803.381 418.8 691.953 453.695 580.296C492.957 580.296 532.219 580.296 571.481 580.296C540.096 684.481 510.286 789.156 482.051 894.321C472.518 930.648 457.491 964.416 436.972 995.62C416.828 1019.03 391.38 1033.26 360.63 1038.31C339.956 1042.15 319.112 1044.56 298.101 1045.55C217.652 1047.78 137.19 1048.26 56.7123 1046.99C25.3746 1046.18 7.19776 1030.51 2.18164 999.961C0.566895 974.229 3.95991 949.146 12.3607 924.711C49.5971 809.925 86.6779 695.119 123.603 580.296Z" fill="url(#paint2_linear_2264_2)"/>
<path opacity="0.994" fill-rule="evenodd" clip-rule="evenodd" d="M651.46 580.296C700.075 581.072 748.546 581.553 796.875 581.743C754.467 715.815 712.054 849.915 669.637 984.043C667.202 996.383 669.384 1007.72 676.18 1018.05C678.761 1020.13 681.67 1021.58 684.905 1022.39C754.22 1023.36 823.534 1023.36 892.849 1022.39C906.279 1020.13 917.185 1013.62 925.567 1002.86C931.106 993.274 935.468 983.144 938.654 972.466C980.253 841.762 1021.7 711.038 1062.98 580.296C1111.94 580.296 1160.9 580.296 1209.85 580.296C1169.81 710.278 1132.24 841.002 1097.16 972.466C1087.49 1007.12 1074.4 1040.4 1057.89 1072.32C1030.38 1119.88 988.937 1146.65 933.565 1152.63C908.981 1156.4 884.26 1158.81 859.403 1159.87C762.957 1162.1 666.497 1162.58 570.027 1161.32C522.526 1158.18 498.775 1132.85 498.774 1085.34C500.365 1061.75 504.484 1038.6 511.134 1015.88C558.359 870.793 605.133 725.597 651.46 580.296Z" fill="url(#paint3_linear_2264_2)"/>
<defs>
<linearGradient id="paint0_linear_2264_2" x1="1209.85" y1="290.871" x2="499.27" y2="290.871" gradientUnits="userSpaceOnUse">
<stop stop-color="#0F39E2"/>
<stop offset="1" stop-color="#4B6EFA"/>
</linearGradient>
<linearGradient id="paint1_linear_2264_2" x1="571.481" y1="347.309" x2="0" y2="347.309" gradientUnits="userSpaceOnUse">
<stop stop-color="#0F39E2"/>
<stop offset="1" stop-color="#4B6EFA"/>
</linearGradient>
<linearGradient id="paint2_linear_2264_2" x1="571.481" y1="813.989" x2="1.79114" y2="813.989" gradientUnits="userSpaceOnUse">
<stop stop-color="#0F39E2"/>
<stop offset="1" stop-color="#4B6EFA"/>
</linearGradient>
<linearGradient id="paint3_linear_2264_2" x1="1209.85" y1="871.148" x2="498.774" y2="871.148" gradientUnits="userSpaceOnUse">
<stop stop-color="#0F39E2"/>
<stop offset="1" stop-color="#4B6EFA"/>
</linearGradient>
</defs>
</svg>
